<svg xmlns="http://www.w3.org/2000/svg" viewBox="0 0 700 560"><defs><linearGradient id="b" x1="0" y1="0" x2="1" y2="1"><stop stop-color="#e6fbff"/><stop offset="1" stop-color="#fff1d3"/></linearGradient></defs><rect width="700" height="560" rx="44" fill="url(#b)"/><circle cx="126" cy="118" r="96" fill="#2f8f7f" opacity=".18"/><ellipse cx="356" cy="336" rx="238" ry="126" fill="#fff"/><path d="M266 292c24-56 144-64 184 0 32 50 0 126-91 128-93 3-121-77-93-128Z" fill="#e26343"/><circle cx="328" cy="300" r="10" fill="#25120d"/><circle cx="384" cy="300" r="10" fill="#25120d"/><path d="M322 344c27 18 55 18 84 0" stroke="#8c2d1f" stroke-width="10" stroke-linecap="round" fill="none"/><path d="M244 312c-45-34-73-28-98 10M466 312c45-34 73-28 98 10" stroke="#e26343" stroke-width="22" stroke-linecap="round"/><path d="M184 316c-18-34 8-64 43-48M526 316c18-34-8-64-43-48" stroke="#e26343" stroke-width="20" stroke-linecap="round" fill="none"/><circle cx="234" cy="402" r="24" fill="#f3b65f"/><circle cx="494" cy="390" r="22" fill="#f3b65f"/><text x="60" y="492" font-family="Georgia" font-size="52" fill="#0f433f" font-weight="700">Crab Special</text></svg>
