<svg xmlns="http://www.w3.org/2000/svg" viewBox="0 0 700 560"><defs><linearGradient id="a" x1="0" y1="0" x2="1" y2="1"><stop stop-color="#fff3d7"/><stop offset="1" stop-color="#cfeee6"/></linearGradient></defs><rect width="700" height="560" rx="44" fill="url(#a)"/><circle cx="560" cy="100" r="92" fill="#f27f61" opacity=".22"/><ellipse cx="350" cy="315" rx="250" ry="155" fill="#fffdf7"/><ellipse cx="350" cy="315" rx="210" ry="122" fill="#edf7ef"/><path d="M270 342c36-54 110-70 180-18 19 14 34 29 46 44-54 44-108 54-162 30-29-13-50-31-64-56Z" fill="#bd5a37"/><circle cx="448" cy="346" r="7" fill="#1d1512"/><path d="M305 348c38 10 80 10 126 0" stroke="#ffd27c" stroke-width="8" stroke-linecap="round"/><circle cx="238" cy="254" r="70" fill="#fff"/><circle cx="238" cy="254" r="54" fill="#f6edce"/><circle cx="438" cy="238" r="56" fill="#fff"/><circle cx="438" cy="238" r="42" fill="#f3b65f"/><path d="M92 88c52 12 98 31 138 58" stroke="#0f433f" stroke-width="12" opacity=".18" stroke-linecap="round"/><text x="64" y="492" font-family="Georgia" font-size="52" fill="#0f433f" font-weight="700">Fish Thali</text></svg>
