<svg xmlns="http://www.w3.org/2000/svg" viewBox="0 0 700 560"><defs><linearGradient id="c" x1="0" y1="0" x2="1" y2="1"><stop stop-color="#fff6e2"/><stop offset="1" stop-color="#e8f5ef"/></linearGradient></defs><rect width="700" height="560" rx="44" fill="url(#c)"/><circle cx="560" cy="120" r="100" fill="#f27f61" opacity=".2"/><path d="M184 284h332l-34 132H220z" fill="#fff"/><path d="M202 292h296" stroke="#0f433f" stroke-width="16" stroke-linecap="round" opacity=".32"/><path d="M262 230c-20-42 10-65 0-96M354 232c-18-39 14-64 2-100M438 232c-21-41 13-66 0-100" stroke="#0f433f" stroke-width="10" opacity=".24" stroke-linecap="round"/><circle cx="282" cy="304" r="28" fill="#d85b3f"/><circle cx="352" cy="310" r="32" fill="#e88449"/><circle cx="422" cy="302" r="26" fill="#d85b3f"/><path d="M214 215c118 68 230 76 338 24" stroke="#8c4b22" stroke-width="14" stroke-linecap="round"/><text x="58" y="492" font-family="Georgia" font-size="50" fill="#0f433f" font-weight="700">Indo-Chinese</text></svg>
