<svg xmlns="http://www.w3.org/2000/svg" viewBox="0 0 220 220" role="img" aria-labelledby="title desc">
<title id="title">The Fish House Goa Logo</title><desc id="desc">Circular fish and house emblem for The Fish House Goa</desc>
<defs><linearGradient id="g" x1="0" y1="0" x2="1" y2="1"><stop stop-color="#0f433f"/><stop offset="1" stop-color="#2f8f7f"/></linearGradient><filter id="s" x="-20%" y="-20%" width="140%" height="140%"><feDropShadow dx="0" dy="10" stdDeviation="10" flood-color="#092b2a" flood-opacity=".25"/></filter></defs>
<circle cx="110" cy="110" r="104" fill="#fff7e8"/><circle cx="110" cy="110" r="92" fill="url(#g)" filter="url(#s)"/>
<path d="M52 118c24-38 62-52 111-34 9 3 18 9 28 18-10 10-19 16-28 20-49 18-87 3-111-34 13 10 26 14 40 14-15 4-28 9-40 16Z" fill="#fff7e8"/>
<circle cx="151" cy="101" r="5" fill="#092b2a"/>
<path d="M86 87h47l23 21v40H64v-40l22-21Z" fill="#f3b65f" stroke="#fff7e8" stroke-width="8" stroke-linejoin="round"/>
<path d="M84 116h52v32H84z" fill="#fff7e8"/><path d="M96 148v-20h28v20" fill="#0f433f"/>
<path d="M64 164c31 14 62 14 92 0" fill="none" stroke="#fff7e8" stroke-width="8" stroke-linecap="round"/>
</svg>
