<svg xmlns="http://www.w3.org/2000/svg" viewBox="0 0 900 650"><defs><linearGradient id="sky" x1="0" y1="0" x2="0" y2="1"><stop stop-color="#dff8ff"/><stop offset="1" stop-color="#fff7e8"/></linearGradient></defs><rect width="900" height="650" rx="46" fill="url(#sky)"/><circle cx="730" cy="116" r="64" fill="#f3b65f"/><path d="M0 392c116-54 215-50 315 0s195 53 310 0 189-55 275-8v266H0z" fill="#79c7bc"/><path d="M0 438c120 42 236 42 348 0s232-48 356 0 151 51 196 30v182H0z" fill="#176c65" opacity=".85"/><path d="M120 340h280l-34-108H158z" fill="#f27f61"/><path d="M146 232h228l-44-52H190z" fill="#0f433f"/><rect x="172" y="258" width="46" height="82" fill="#fff7e8"/><rect x="250" y="258" width="90" height="82" fill="#fff7e8"/><path d="M538 328c38-47 86-64 146-53 30 5 59 20 88 45-35 36-73 56-114 60-48 5-88-12-120-52Z" fill="#fff7e8"/><circle cx="700" cy="314" r="8" fill="#092b2a"/><path d="M542 482c58 18 116 18 174 0" stroke="#fff7e8" stroke-width="12" stroke-linecap="round" opacity=".45"/><path d="M85 150c64-38 130-49 197-30" stroke="#0f433f" stroke-width="12" stroke-linecap="round" opacity=".16"/></svg>
